<svg width="192" height="192" viewBox="0 0 192 192" fill="none" xmlns="http://www.w3.org/2000/svg">
<g clip-path="url(#clip0_28_5)">
<path d="M125.471 0H66.533C12.749 0 -0.00100708 12.75 -0.00100708 66.534V125.472C-0.00100708 179.256 12.749 192.006 66.533 192.006H125.471C179.255 192.006 192.005 179.256 192.005 125.472V66.534C192.005 12.75 179.129 0 125.471 0ZM155.003 136.968H141.065C135.785 136.968 134.159 132.78 124.661 123.156C116.411 115.158 112.757 114.096 110.723 114.096C107.849 114.096 107.033 114.906 107.033 118.848V131.442C107.033 134.82 105.971 136.848 97.0309 136.848C82.2469 136.848 65.843 127.908 54.341 111.252C36.995 86.844 32.249 68.562 32.249 64.782C32.249 62.748 33.059 60.846 36.965 60.846H50.933C54.467 60.846 55.811 62.472 57.185 66.252C64.091 86.19 75.593 103.656 80.339 103.656C82.0909 103.656 82.9009 102.846 82.9009 98.3759V77.784C82.3669 68.286 77.369 67.47 77.369 64.098C77.369 62.472 78.713 60.846 80.867 60.846H102.833C105.803 60.846 106.895 62.472 106.895 65.97V93.7499C106.895 96.7499 108.239 97.8119 109.049 97.8119C110.801 97.8119 112.301 96.7499 115.547 93.4979C125.579 82.248 132.767 64.902 132.767 64.902C133.703 62.868 135.329 60.966 138.863 60.966H152.831C157.019 60.966 157.955 63.12 157.019 66.12C155.267 74.244 138.173 98.3699 138.173 98.3699C136.703 100.806 136.139 101.868 138.173 104.586C139.673 106.62 144.551 110.838 147.797 114.618C153.767 121.398 158.357 127.086 159.581 131.022C160.955 134.928 158.927 136.962 154.985 136.962L155.003 136.968Z" fill="#2AABEE"/>
</g>
<defs>
<clipPath id="clip0_28_5">
<rect width="192" height="192" fill="white"/>
</clipPath>
</defs>
</svg>
