<svg width="24" height="24" viewBox="0 0 24 24" fill="none" xmlns="http://www.w3.org/2000/svg">
<path d="M12.001 20C14.1227 20 16.1575 19.1571 17.6578 17.6569C19.1581 16.1566 20.001 14.1217 20.001 12C20.001 9.87827 19.1581 7.84344 17.6578 6.34315C16.1575 4.84285 14.1227 4 12.001 4C9.87924 4 7.84441 4.84285 6.34412 6.34315C4.84383 7.84344 4.00098 9.87827 4.00098 12C4.00098 14.1217 4.84383 16.1566 6.34412 17.6569C7.84441 19.1571 9.87924 20 12.001 20ZM12.001 22C6.47798 22 2.00098 17.523 2.00098 12C2.00098 6.477 6.47798 2 12.001 2C17.524 2 22.001 6.477 22.001 12C22.001 17.523 17.524 22 12.001 22ZM8.89098 13.17L6.39298 12.391C5.85298 12.226 5.84998 11.854 6.51398 11.587L16.247 7.827C16.811 7.597 17.133 7.888 16.95 8.617L15.292 16.437C15.176 16.994 14.841 17.127 14.376 16.87L11.825 14.982L10.636 16.13C10.514 16.248 10.415 16.349 10.227 16.374C10.04 16.4 9.88598 16.344 9.77298 16.034L8.90298 13.163L8.89098 13.17Z" fill="#FAFAB0"/>
</svg>
