<svg width="84" height="63" viewBox="0 0 84 63" fill="none" xmlns="http://www.w3.org/2000/svg">
<path d="M4.16906 62.3886H79.1691C79.9284 62.3862 80.6728 62.1768 81.3219 61.7828C81.9711 61.3889 82.5005 60.8254 82.8533 60.1529C83.206 59.4805 83.3686 58.7246 83.3237 57.9666C83.2788 57.2086 83.028 56.4771 82.5983 55.8511L45.0983 1.68438C43.5441 -0.561459 39.8024 -0.561459 38.2441 1.68438L0.744058 55.8511C0.309994 56.4758 0.0554496 57.2076 0.00807886 57.9669C-0.0392918 58.7262 0.122323 59.4839 0.475366 60.1578C0.828408 60.8316 1.35937 61.3959 2.01058 61.7892C2.66178 62.1825 3.40831 62.3898 4.16906 62.3886Z" fill="#C353C3"/>
</svg>
