<svg width="304" height="304" viewBox="0 0 304 304" fill="none" xmlns="http://www.w3.org/2000/svg">
<path fill-rule="evenodd" clip-rule="evenodd" d="M259.267 44.6186C245.272 30.6168 228.646 19.5215 210.345 11.9712C192.045 4.42101 172.432 0.565 152.635 0.625206C69.5547 0.625206 1.9225 67.9195 1.88871 150.649C1.85196 176.991 8.79584 202.874 22.0135 225.66L0.625 303.375L80.5361 282.514C102.656 294.497 127.417 300.769 152.574 300.76H152.635C235.709 300.76 303.334 233.459 303.375 150.736C303.425 131.007 299.552 111.465 291.979 93.2474C284.407 75.0293 273.287 58.4991 259.267 44.6186ZM152.635 275.438H152.581C130.155 275.445 108.136 269.443 88.8145 258.057L84.2394 255.354L36.8198 267.735L49.4772 221.721L46.497 216.99C33.9571 197.137 27.3133 174.131 27.3386 150.649C27.3386 81.9014 83.5704 25.967 152.683 25.967C185.836 25.9078 217.656 39.0199 241.143 62.4195C264.63 85.819 277.861 117.59 277.925 150.743C277.898 219.497 221.693 275.438 152.635 275.438ZM221.355 182.052C217.591 180.174 199.055 171.105 195.622 169.854C192.189 168.604 189.655 167.976 187.147 171.733C184.64 175.49 177.416 183.897 175.22 186.431C173.024 188.965 170.827 189.243 167.063 187.364C163.299 185.485 151.155 181.532 136.768 168.76C125.57 158.819 118.015 146.547 115.819 142.796C113.622 139.045 115.582 137.011 117.468 135.146C119.164 133.464 121.232 130.767 123.117 128.578C125.003 126.388 125.631 124.82 126.881 122.32C128.131 119.82 127.51 117.63 126.57 115.758C125.631 113.886 118.096 95.4305 114.96 87.9226C111.899 80.6107 108.797 81.6041 106.486 81.4892C104.29 81.3811 101.756 81.354 99.262 81.354C97.3557 81.4037 95.4801 81.8457 93.7523 82.6527C92.0245 83.4596 90.4816 84.614 89.2199 86.044C85.7667 89.8013 76.0354 98.8838 76.0354 117.319C76.0354 135.754 89.5511 153.595 91.4162 156.095C93.2814 158.596 117.974 196.46 155.757 212.699C162.773 215.703 169.942 218.338 177.234 220.592C186.255 223.444 194.466 223.045 200.954 222.079C208.191 221.004 223.254 213.01 226.383 204.252C229.512 195.493 229.519 187.992 228.58 186.431C227.64 184.87 225.126 183.924 221.355 182.052Z" fill="#4ECB71"/>
</svg>
